<svg id="image-sign_comp-large" data-name="image-sign&amp;comp-large" xmlns="http://www.w3.org/2000/svg" xmlns:xlink="http://www.w3.org/1999/xlink" width="149.38" height="132.853" viewBox="0 0 149.38 132.853">
  <defs>
    <linearGradient id="linear-gradient" x1="0.138" y1="0.53" x2="0.851" y2="0.515" gradientUnits="objectBoundingBox">
      <stop offset="0" stop-color="#fff" stop-opacity="0"/>
      <stop offset="1" stop-color="#fff"/>
    </linearGradient>
    <linearGradient id="linear-gradient-3" x1="0.132" y1="0.489" x2="0.857" y2="0.504" xlink:href="#linear-gradient"/>
    <linearGradient id="linear-gradient-5" x1="0.078" y1="0.493" x2="0.915" y2="0.459" gradientUnits="objectBoundingBox">
      <stop offset="0" stop-color="#fff"/>
      <stop offset="1" stop-color="#fff" stop-opacity="0"/>
    </linearGradient>
    <linearGradient id="linear-gradient-6" x1="0.83" y1="0.506" x2="0.162" y2="0.5" xlink:href="#linear-gradient-5"/>
  </defs>
  <g id="Group_153" data-name="Group 153" transform="translate(1.837 0)" opacity="0">
    <rect id="Rectangle_100" data-name="Rectangle 100" width="94" height="26" rx="13" transform="translate(66.468 84.853) rotate(-135)" opacity="0.2" fill="url(#linear-gradient)"/>
    <rect id="Rectangle_102" data-name="Rectangle 102" width="94" height="26" rx="13" transform="translate(127.321 84.853) rotate(-135)" opacity="0.2" fill="url(#linear-gradient)"/>
    <rect id="Rectangle_101" data-name="Rectangle 101" width="94" height="26" rx="13" transform="translate(0 114.468) rotate(-45)" opacity="0.2" fill="url(#linear-gradient-3)"/>
    <rect id="Rectangle_103" data-name="Rectangle 103" width="94" height="26" rx="13" transform="translate(60.853 114.468) rotate(-45)" opacity="0.2" fill="url(#linear-gradient-3)"/>
  </g>
  <g id="Group_362" data-name="Group 362" transform="translate(-8 2.737)">
    <rect id="Rectangle_104" data-name="Rectangle 104" width="140" height="26" rx="13" transform="translate(157.38 23.385) rotate(135)" opacity="0.2" fill="url(#linear-gradient-5)"/>
    <rect id="Rectangle_105" data-name="Rectangle 105" width="70" height="26" rx="13" transform="translate(26.385 54.497) rotate(45)" opacity="0.2" fill="url(#linear-gradient-6)"/>
    <circle id="Ellipse_34" data-name="Ellipse 34" cx="13" cy="13" r="13" transform="translate(13.674 60)" fill="#fff" opacity="0.2"/>
  </g>
</svg>
