<svg id="image-binder-large" xmlns="http://www.w3.org/2000/svg" xmlns:xlink="http://www.w3.org/1999/xlink" width="145.706" height="133.427" viewBox="0 0 145.706 133.427">
  <defs>
    <linearGradient id="linear-gradient" x1="0.138" y1="0.53" x2="0.851" y2="0.515" gradientUnits="objectBoundingBox">
      <stop offset="0" stop-color="#fff" stop-opacity="0"/>
      <stop offset="1" stop-color="#fff"/>
    </linearGradient>
    <linearGradient id="linear-gradient-3" x1="0.132" y1="0.489" x2="0.857" y2="0.504" xlink:href="#linear-gradient"/>
    <linearGradient id="linear-gradient-5" x1="0.5" x2="0.5" y2="1" gradientUnits="objectBoundingBox">
      <stop offset="0" stop-color="#00bed9"/>
      <stop offset="1" stop-color="#00bed9" stop-opacity="0"/>
    </linearGradient>
  </defs>
  <g id="Group_153" data-name="Group 153" transform="translate(0 0)" opacity="0">
    <rect id="Rectangle_100" data-name="Rectangle 100" width="94" height="26" rx="13" transform="translate(66.468 84.853) rotate(-135)" opacity="0.2" fill="url(#linear-gradient)"/>
    <rect id="Rectangle_102" data-name="Rectangle 102" width="94" height="26" rx="13" transform="translate(127.321 84.853) rotate(-135)" opacity="0.2" fill="url(#linear-gradient)"/>
    <rect id="Rectangle_101" data-name="Rectangle 101" width="94" height="26" rx="13" transform="translate(0 114.468) rotate(-45)" opacity="0.2" fill="url(#linear-gradient-3)"/>
    <rect id="Rectangle_103" data-name="Rectangle 103" width="94" height="26" rx="13" transform="translate(60.853 114.468) rotate(-45)" opacity="0.2" fill="url(#linear-gradient-3)"/>
  </g>
  <g id="Group_361" data-name="Group 361" transform="translate(6.353 133.427) rotate(-90)">
    <g id="Path_23" data-name="Path 23" fill="none" opacity="0.2">
      <path d="M66.5,0A66.5,66.5,0,1,1,0,66.5,66.5,66.5,0,0,1,66.5,0Z" stroke="none"/>
      <path d="M 66.5 26 C 44.16820526123047 26 26 44.16820526123047 26 66.5 C 26 88.831787109375 44.16820526123047 107 66.5 107 C 88.831787109375 107 107 88.831787109375 107 66.5 C 107 44.16820526123047 88.831787109375 26 66.5 26 M 66.5 0 C 103.2269134521484 0 133 29.77308654785156 133 66.5 C 133 103.2269134521484 103.2269134521484 133 66.5 133 C 29.77308654785156 133 0 103.2269134521484 0 66.5 C 0 29.77308654785156 29.77308654785156 0 66.5 0 Z" stroke="none" fill="#fff"/>
    </g>
    <rect id="Rectangle_107" data-name="Rectangle 107" width="133" height="133" fill="url(#linear-gradient-5)"/>
    <rect id="Rectangle_106" data-name="Rectangle 106" width="67" height="67" fill="#00bed9"/>
    <circle id="Ellipse_35" data-name="Ellipse 35" cx="13" cy="13" r="13" transform="translate(0 53.5)" fill="#21cee6"/>
  </g>
</svg>
