<svg xmlns="http://www.w3.org/2000/svg" width="160" height="160" viewBox="0 0 160 160"><defs><style>.a{fill:#00bed9;}.b{fill:#fff;}</style></defs><g transform="translate(-176 -176)"><rect class="a" width="160" height="160" transform="translate(176 176)"/><path class="b" d="M0-72a8.122,8.122,0,0,1,8.063,8.063A8.086,8.086,0,0,1,0-56.062a8.086,8.086,0,0,1-8.062-7.875A8.122,8.122,0,0,1,0-72ZM0-32.062c10.875,0,23.25,5.25,24,8.063H-24C-23.062-26.812-10.687-32.062,0-32.062Zm0-48A16.085,16.085,0,0,0-15.937-63.937,15.924,15.924,0,0,0,0-48,15.924,15.924,0,0,0,15.938-63.937,16.085,16.085,0,0,0,0-80.062ZM0-39.937c-10.687,0-32.062,5.25-32.062,15.938v8.063H32.063V-24C32.063-34.687,10.688-39.937,0-39.937Z" transform="translate(256 304)"/></g></svg>