<svg xmlns="http://www.w3.org/2000/svg" width="32" height="32" viewBox="0 0 32 32">
  <path id="menu-logo" d="M857.872,769.794a10.488,10.488,0,1,0,10.59,10.211A10.536,10.536,0,0,0,857.872,769.794ZM836.481,792c0,1.607-.023,3.215.005,4.821a4.7,4.7,0,1,0,9.405,0c.042-3.214.03-6.429,0-9.643a4.676,4.676,0,0,0-2.337-4.137c-2.313-1.453-2.288-3.227.043-4.749a4.716,4.716,0,0,0,2.218-4.766,4.772,4.772,0,0,0-4.268-3.885,4.68,4.68,0,0,0-4.811,3.164,4.6,4.6,0,0,0,1.992,5.5c2.382,1.578,2.4,3.192.06,4.73a4.669,4.669,0,0,0-2.312,4.149C836.492,788.786,836.481,790.393,836.481,792Z" transform="translate(-836.463 -769.624)" fill="#00bed9"/>
</svg>
