<svg xmlns="http://www.w3.org/2000/svg" xmlns:xlink="http://www.w3.org/1999/xlink" width="160" height="110" viewBox="0 0 160 110">
  <defs>
    <clipPath id="clip-path">
      <rect id="Rectangle_148" data-name="Rectangle 148" width="160" height="110" fill="#00bed9"/>
    </clipPath>
  </defs>
  <g id="logo-io.insure-primary" clip-path="url(#clip-path)">
    <path id="Path_30" data-name="Path 30" d="M53.94.3a36.051,36.051,0,1,0,13.8,2.733A36.065,36.065,0,0,0,53.94.3Z" transform="translate(19.362 0.327)" fill="#00bed9"/>
    <path id="Path_31" data-name="Path 31" d="M36.211,53.484A1.671,1.671,0,0,1,34.3,51.665v-.4A1.9,1.9,0,0,1,34.76,49.9a1.853,1.853,0,0,1,1.451-.494,1.661,1.661,0,0,1,1.914,1.86v.4a1.892,1.892,0,0,1-.452,1.324,1.915,1.915,0,0,1-1.462.494Z" transform="translate(37.069 53.111)" fill="#00bed9"/>
    <path id="Path_32" data-name="Path 32" d="M55.9,60.136a7.513,7.513,0,0,1-3.776-.862,8.283,8.283,0,0,1-2.6-2.3L51.291,55.5a6.856,6.856,0,0,0,2.1,1.829,5.431,5.431,0,0,0,2.692.652,3.946,3.946,0,0,0,2.493-.694,2.491,2.491,0,0,0,.284-3.563,3.7,3.7,0,0,0-2.209-.925l-1.283-.189a10.516,10.516,0,0,1-2.1-.484,6,6,0,0,1-1.641-.83,3.732,3.732,0,0,1-1.052-1.366,4.455,4.455,0,0,1-.4-1.945,4.676,4.676,0,0,1,.442-2.1,4.206,4.206,0,0,1,1.21-1.482,5.094,5.094,0,0,1,1.84-.893,8.42,8.42,0,0,1,2.282-.3,7.09,7.09,0,0,1,3.313.694A7.259,7.259,0,0,1,61.6,45.809l-1.662,1.5a4.964,4.964,0,0,0-1.567-1.366,5.038,5.038,0,0,0-2.608-.61,3.588,3.588,0,0,0-2.366.673,2.269,2.269,0,0,0-.8,1.839,1.924,1.924,0,0,0,.8,1.724,5.827,5.827,0,0,0,2.3.778l1.262.189a6.735,6.735,0,0,1,3.828,1.556,4.121,4.121,0,0,1,1.125,3,4.561,4.561,0,0,1-1.6,3.7A6.576,6.576,0,0,1,55.9,60.136Z" transform="translate(53.54 46.458)" fill="#00bed9"/>
    <path id="Path_33" data-name="Path 33" d="M65.554,59.6V43.41h2.514v2.975h.158a4.917,4.917,0,0,1,1.567-2.1,4.818,4.818,0,0,1,3.155-.914h.967V45.88H72.442a5.669,5.669,0,0,0-3.155.767,2.259,2.259,0,0,0-1.146,1.924V59.555Z" transform="translate(70.87 46.63)" fill="#00bed9"/>
    <path id="Path_34" data-name="Path 34" d="M77.425,60.134a7.366,7.366,0,0,1-3-.589,6.445,6.445,0,0,1-2.293-1.714,7.712,7.712,0,0,1-1.472-2.67,11.808,11.808,0,0,1,0-6.969A7.815,7.815,0,0,1,72.135,45.5a6.543,6.543,0,0,1,2.293-1.7,7.2,7.2,0,0,1,3-.6,6.807,6.807,0,0,1,2.913.6,6.311,6.311,0,0,1,2.2,1.64,7.256,7.256,0,0,1,1.4,2.481,9.721,9.721,0,0,1,.484,3.153v1.188H72.777v.757a5.791,5.791,0,0,0,.326,1.934,4.53,4.53,0,0,0,.946,1.545,4.373,4.373,0,0,0,1.5,1.051,5.178,5.178,0,0,0,2.03.378,4.923,4.923,0,0,0,2.682-.725,4.7,4.7,0,0,0,1.767-2.1l1.788,1.293a6.224,6.224,0,0,1-2.44,2.7A7.366,7.366,0,0,1,77.425,60.134Zm0-14.831a4.691,4.691,0,0,0-1.883.357,4.208,4.208,0,0,0-1.462,1.051,4.677,4.677,0,0,0-.957,1.535,5.339,5.339,0,0,0-.347,1.955v.21h8.95v-.336a4.949,4.949,0,0,0-1.178-3.448A4.028,4.028,0,0,0,77.425,45.3Z" transform="translate(75.825 46.46)" fill="#00bed9"/>
    <path id="Path_35" data-name="Path 35" d="M42.105,59.745V43.579l1.367,2.1,1.136.473h.126a5.257,5.257,0,0,1,1.683-2.176,4.777,4.777,0,0,1,2.9-.809,5.048,5.048,0,0,1,4.017,1.65A6.535,6.535,0,0,1,54.8,49.381V59.745H52.286V49.8q0-4.373-3.67-4.373a5.562,5.562,0,0,0-1.451.189,4.211,4.211,0,0,0-1.273.568,2.776,2.776,0,0,0-.967.946,2.709,2.709,0,0,0-.337,1.366V59.745Z" transform="translate(45.52 46.419)" fill="#00bed9"/>
    <path id="Path_36" data-name="Path 36" d="M43.188,43.366a2.546,2.546,0,0,1,1.988.736,2.659,2.659,0,0,1,.673,1.871V59.532h-2.5V45.594H40.958V43.366Z" transform="translate(44.28 46.631)" fill="#00bed9"/>
    <path id="Path_37" data-name="Path 37" d="M69.616,43.388V59.575l-1.367-2.1L67.113,57h-.126A5.256,5.256,0,0,1,65.3,59.176a4.776,4.776,0,0,1-2.9.809,5.08,5.08,0,0,1-3.965-1.619A6.555,6.555,0,0,1,56.975,53.8V43.388h2.513v9.965q0,4.372,3.67,4.373a5.553,5.553,0,0,0,1.451-.189,4.205,4.205,0,0,0,1.273-.567,2.777,2.777,0,0,0,.894-.957,2.741,2.741,0,0,0,.337-1.367V43.388Z" transform="translate(61.581 46.662)" fill="#00bed9"/>
    <path id="Path_38" data-name="Path 38" d="M64.5,59.575a2.578,2.578,0,0,1-1.988-.736,2.659,2.659,0,0,1-.673-1.871V43.388h2.5V57.4H66.71v2.228Z" transform="translate(66.853 46.662)" fill="#00bed9"/>
    <path id="Path_39" data-name="Path 39" d="M24.556,43.225a1.527,1.527,0,0,1-1.178-.389,1.462,1.462,0,0,1-.368-1.051v-.41a1.438,1.438,0,0,1,.368-1.051,1.525,1.525,0,0,1,1.178-.3,1.5,1.5,0,0,1,1.167.389,1.439,1.439,0,0,1,.368,1.051v.41a1.46,1.46,0,0,1-.368,1.051,1.5,1.5,0,0,1-1.167.3ZM23.294,47.02h2.514v12.1H23.273Z" transform="translate(24.873 43.019)" fill="#00bed9"/>
    <path id="Path_40" data-name="Path 40" d="M33.619,60.134a7.457,7.457,0,0,1-2.987-.589,6.488,6.488,0,0,1-2.3-1.713,7.937,7.937,0,0,1-1.493-2.67,11.559,11.559,0,0,1,0-6.969A8.04,8.04,0,0,1,28.329,45.5a6.585,6.585,0,0,1,2.3-1.7,7.292,7.292,0,0,1,2.987-.6,7.19,7.19,0,0,1,2.966.6,6.782,6.782,0,0,1,2.293,1.7,7.869,7.869,0,0,1,1.5,2.691,11.555,11.555,0,0,1,0,6.969,7.776,7.776,0,0,1-1.5,2.67,6.68,6.68,0,0,1-2.3,1.713A7.364,7.364,0,0,1,33.619,60.134Zm0-2.218a4.554,4.554,0,0,0,3.323-1.261,5.1,5.1,0,0,0,1.283-3.826V50.506a5.118,5.118,0,0,0-1.283-3.826,5.05,5.05,0,0,0-6.657,0A5.158,5.158,0,0,0,29,50.506v2.323a5.139,5.139,0,0,0,1.283,3.826,4.564,4.564,0,0,0,3.334,1.261Z" transform="translate(28.43 46.46)" fill="#00bed9"/>
    <path id="Path_41" data-name="Path 41" d="M25.807,59.57a2.609,2.609,0,0,1-2-.736,2.7,2.7,0,0,1-.673-1.871V43.383h2.514V57.342h2.387V59.57Z" transform="translate(25.01 46.657)" fill="#00bed9"/>
    <path id="Path_42" data-name="Path 42" d="M39.676,43.259A1.525,1.525,0,0,1,38.5,42.87a1.449,1.449,0,0,1-.358-1.051v-.41a1.439,1.439,0,0,1,.358-1.051,1.978,1.978,0,0,1,2.356,0,1.441,1.441,0,0,1,.358,1.051v.41a1.452,1.452,0,0,1-.358,1.051,1.526,1.526,0,0,1-1.178.389Zm-1.252,3.795h2.5v12.1h-2.5Z" transform="translate(41.23 42.986)" fill="#00bed9"/>
    <path id="Path_43" data-name="Path 43" d="M40.937,59.57a2.6,2.6,0,0,1-1.988-.736,2.659,2.659,0,0,1-.673-1.871V43.383h2.5V57.342h2.387V59.57Z" transform="translate(41.378 46.657)" fill="#00bed9"/>
    <g id="Group_263" data-name="Group 263" transform="translate(-20)">
      <path id="Path_45" data-name="Path 45" d="M18.344,37.943A8.346,8.346,0,0,1,23,30.406a16.02,16.02,0,1,0-13.861.074A8.387,8.387,0,0,1,9.11,45.448,16.039,16.039,0,0,0,.024,59.911V93.621a16.253,16.253,0,0,0,14.44,16.3A16.043,16.043,0,0,0,32.058,94V59.911A16.04,16.04,0,0,0,22.93,45.479a8.282,8.282,0,0,1-4.585-7.536Z" transform="translate(19.977 0.002)" fill="#00bed9"/>
      <circle id="Ellipse_40" data-name="Ellipse 40" cx="16" cy="16" r="16" transform="translate(20)" fill="#00bed9" opacity="0.5"/>
    </g>
  </g>
</svg>
