<svg xmlns="http://www.w3.org/2000/svg" xmlns:xlink="http://www.w3.org/1999/xlink" width="560.114" height="821" viewBox="0 0 560.114 821">
  <defs>
    <linearGradient id="linear-gradient" x1="0.489" y1="0.351" x2="0.5" y2="0.82" gradientUnits="objectBoundingBox">
      <stop offset="0" stop-color="#fff" stop-opacity="0.502"/>
      <stop offset="1" stop-color="#fff" stop-opacity="0"/>
    </linearGradient>
  </defs>
  <path id="login-background-image" d="M15863.367,8634c-.27-40.241.188-80.5.188-120.742,0-50.226.343-100.46-.1-150.673-.482-56.845,25.344-98.868,72.251-129.65,73.25-48.081,72.577-98.5-1.875-147.816-61.048-40.424-85.287-107.33-62.254-171.814,21.656-60.64,75.732-99.013,138.165-99.3h1.433q5.335.025,10.745.423c65.4,4.825,119.857,54.4,133.367,121.423,11.105,55.081-16.516,114.457-69.3,148.946-72.813,47.589-73.609,103.025-1.329,148.417,48.216,30.287,72.539,73.614,73.03,129.283.785,90.5,1.165,181.014.282,271.508Zm341.052-486.818c-.1-141.471,90.666-262.482,217.583-308.3v616.149C16293.909,8409.66,16204.514,8290.633,16204.419,8147.183Z" transform="translate(-15862.388 -7813.5)" stroke="rgba(0,0,0,0)" stroke-miterlimit="10" stroke-width="1" fill="url(#linear-gradient)"/>
</svg>
