<svg xmlns="http://www.w3.org/2000/svg" xmlns:xlink="http://www.w3.org/1999/xlink" width="80" height="71.149" viewBox="0 0 80 71.149">
  <defs>
    <linearGradient id="linear-gradient" x1="0.138" y1="0.53" x2="0.851" y2="0.515" gradientUnits="objectBoundingBox">
      <stop offset="0" stop-color="#fff" stop-opacity="0"/>
      <stop offset="1" stop-color="#fff"/>
    </linearGradient>
    <linearGradient id="linear-gradient-3" x1="0.132" y1="0.489" x2="0.857" y2="0.504" xlink:href="#linear-gradient"/>
    <linearGradient id="linear-gradient-5" x1="0.078" y1="0.493" x2="0.915" y2="0.459" gradientUnits="objectBoundingBox">
      <stop offset="0" stop-color="#fff"/>
      <stop offset="1" stop-color="#fff" stop-opacity="0"/>
    </linearGradient>
    <linearGradient id="linear-gradient-6" x1="0.83" y1="0.506" x2="0.162" y2="0.5" xlink:href="#linear-gradient-5"/>
  </defs>
  <g id="tab-image-sign_comp-active" data-name="tab-image-sign&amp;comp-active" transform="translate(0 0)">
    <g id="Group_153" data-name="Group 153" transform="translate(0.984)" opacity="0">
      <rect id="Rectangle_100" data-name="Rectangle 100" width="50.341" height="13.924" rx="6.962" transform="translate(35.597 45.443) rotate(-135)" opacity="0.2" fill="url(#linear-gradient)"/>
      <rect id="Rectangle_102" data-name="Rectangle 102" width="50.341" height="13.924" rx="6.962" transform="translate(68.187 45.443) rotate(-135)" opacity="0.2" fill="url(#linear-gradient)"/>
      <rect id="Rectangle_101" data-name="Rectangle 101" width="50.341" height="13.924" rx="6.962" transform="translate(0 61.303) rotate(-45)" opacity="0.2" fill="url(#linear-gradient-3)"/>
      <rect id="Rectangle_103" data-name="Rectangle 103" width="50.341" height="13.924" rx="6.962" transform="translate(32.59 61.303) rotate(-45)" opacity="0.2" fill="url(#linear-gradient-3)"/>
    </g>
    <g id="Group_362" data-name="Group 362" transform="translate(0 4.143)">
      <rect id="Rectangle_104" data-name="Rectangle 104" width="74.977" height="13.924" rx="6.962" transform="translate(80 9.846) rotate(135)" opacity="0.2" fill="url(#linear-gradient-5)"/>
      <rect id="Rectangle_105" data-name="Rectangle 105" width="37.488" height="13.924" rx="6.962" transform="translate(9.846 26.508) rotate(45)" opacity="0.2" fill="url(#linear-gradient-6)"/>
      <circle id="Ellipse_34" data-name="Ellipse 34" cx="6.962" cy="6.962" r="6.962" transform="translate(3.039 29.455)" fill="#fff" opacity="0.2"/>
    </g>
  </g>
</svg>
