<svg id="tab-image-setup-default" xmlns="http://www.w3.org/2000/svg" xmlns:xlink="http://www.w3.org/1999/xlink" width="80" height="72.943" viewBox="0 0 80 72.943">
  <defs>
    <linearGradient id="linear-gradient" x1="0.138" y1="0.53" x2="0.851" y2="0.515" gradientUnits="objectBoundingBox">
      <stop offset="0" stop-color="#fff" stop-opacity="0"/>
      <stop offset="1" stop-color="#fff"/>
    </linearGradient>
    <linearGradient id="linear-gradient-3" x1="0.132" y1="0.489" x2="0.857" y2="0.504" xlink:href="#linear-gradient"/>
    <linearGradient id="linear-gradient-5" x1="0.138" y1="0.53" x2="0.851" y2="0.515" gradientUnits="objectBoundingBox">
      <stop offset="0" stop-color="#6e6e6e" stop-opacity="0"/>
      <stop offset="1" stop-color="#6e6e6e"/>
    </linearGradient>
    <linearGradient id="linear-gradient-7" x1="0.132" y1="0.489" x2="0.857" y2="0.504" xlink:href="#linear-gradient-5"/>
  </defs>
  <g id="Group_153" data-name="Group 153" transform="translate(0 0)" opacity="0">
    <rect id="Rectangle_100" data-name="Rectangle 100" width="51.611" height="14.275" rx="7.138" transform="translate(36.494 46.588) rotate(-135)" opacity="0.2" fill="url(#linear-gradient)"/>
    <rect id="Rectangle_102" data-name="Rectangle 102" width="51.611" height="14.275" rx="7.138" transform="translate(69.906 46.588) rotate(-135)" opacity="0.2" fill="url(#linear-gradient)"/>
    <rect id="Rectangle_101" data-name="Rectangle 101" width="51.611" height="14.275" rx="7.138" transform="translate(0 62.849) rotate(-45)" opacity="0.2" fill="url(#linear-gradient-3)"/>
    <rect id="Rectangle_103" data-name="Rectangle 103" width="51.611" height="14.275" rx="7.138" transform="translate(33.411 62.849) rotate(-45)" opacity="0.2" fill="url(#linear-gradient-3)"/>
  </g>
  <g id="Group_363" data-name="Group 363" transform="translate(0 0)">
    <rect id="Rectangle_100-2" data-name="Rectangle 100" width="51.611" height="14.275" rx="7.138" transform="translate(36.494 46.588) rotate(-135)" opacity="0.2" fill="url(#linear-gradient-5)"/>
    <rect id="Rectangle_102-2" data-name="Rectangle 102" width="51.611" height="14.275" rx="7.138" transform="translate(69.906 46.588) rotate(-135)" opacity="0.2" fill="url(#linear-gradient-5)"/>
    <rect id="Rectangle_101-2" data-name="Rectangle 101" width="51.611" height="14.275" rx="7.138" transform="translate(0 62.849) rotate(-45)" opacity="0.2" fill="url(#linear-gradient-7)"/>
    <rect id="Rectangle_103-2" data-name="Rectangle 103" width="51.611" height="14.275" rx="7.138" transform="translate(33.411 62.849) rotate(-45)" opacity="0.2" fill="url(#linear-gradient-7)"/>
  </g>
</svg>
